<?xml version="1.0" standalone="no"?>
<!DOCTYPE svg PUBLIC "-//W3C//DTD SVG 20010904//EN"
 "http://www.w3.org/TR/2001/REC-SVG-20010904/DTD/svg10.dtd">
<svg version="1.0" xmlns="http://www.w3.org/2000/svg"
 width="210.000000pt" height="210.000000pt" viewBox="0 0 210.000000 210.000000"
 preserveAspectRatio="xMidYMid meet">
<metadata>
Created by potrace 1.11, written by Peter Selinger 2001-2013
</metadata>
<g transform="translate(0.000000,210.000000) scale(0.100000,-0.100000)"
fill="#000000" stroke="none">
<path d="M307 1792 l-307 -307 0 -437 0 -437 301 -305 301 -306 435 0 435 0
314 307 314 307 0 435 0 436 -308 308 -307 307 -435 0 -435 0 -308 -308z m720
166 c10 -8 13 -110 13 -490 l0 -480 -39 31 c-21 17 -43 31 -49 31 -6 0 -22
-13 -35 -30 -14 -16 -28 -30 -31 -30 -3 0 -6 94 -6 209 l0 209 33 21 32 21
-100 -1 -100 0 38 -20 37 -19 0 -170 c0 -94 -2 -170 -4 -170 -3 0 -22 16 -43
35 l-38 35 -33 -35 c-18 -19 -34 -35 -37 -35 -10 0 -5 886 4 896 14 13 341 6
358 -8z m425 5 c17 -15 18 -44 18 -495 l0 -478 -40 26 -41 27 -28 -21 c-21
-15 -31 -18 -40 -9 -8 8 -11 106 -11 332 l0 321 40 82 39 82 -114 0 -115 0 42
-87 43 -88 -3 -333 -2 -332 -41 26 -41 25 -33 -25 c-19 -14 -36 -26 -40 -26
-7 0 -6 976 2 984 4 3 83 6 176 6 145 0 173 -3 189 -17z m-838 -853 l-6 -35
-15 38 -15 37 -130 0 -129 0 -84 -40 c-46 -22 -86 -40 -89 -40 -3 0 -6 82 -6
182 l0 183 238 238 237 237 3 -382 c1 -211 0 -399 -4 -418z m1058 490 l3 -145
33 -3 32 -3 0 112 0 113 119 -114 c65 -63 119 -118 120 -121 0 -3 -48 -11
-109 -19 -60 -7 -110 -16 -110 -19 0 -4 48 -23 108 -42 l107 -35 3 -132 3
-131 -66 24 -66 25 -49 -25 c-27 -14 -52 -25 -55 -25 -3 0 -5 77 -5 170 l0
170 -35 0 -35 0 0 -165 c0 -91 -2 -165 -6 -165 -3 0 -21 11 -41 24 l-36 25
-32 -25 c-17 -13 -35 -24 -38 -24 -4 0 -7 188 -7 417 l0 418 80 -80 79 -79 3
-146z m-1394 -527 c-15 -2 -42 -2 -60 0 -18 2 -6 4 27 4 33 0 48 -2 33 -4z
m490 0 c-16 -2 -40 -2 -55 0 -16 2 -3 4 27 4 30 0 43 -2 28 -4z m-158 -62 c5
-11 10 -56 10 -100 l0 -81 -85 0 c-69 0 -85 3 -85 15 0 11 -11 15 -38 15 -46
0 -51 -3 -44 -35 4 -25 5 -25 123 -25 l119 0 0 -300 0 -300 -22 14 c-25 17
-398 401 -398 410 0 3 44 6 99 6 l98 0 21 -51 c16 -37 26 -50 39 -47 15 3 18
14 18 68 l0 65 -162 3 -163 2 -1 33 c-2 118 2 311 7 318 3 5 106 9 229 9 212
0 225 -1 235 -19z m208 -26 l-4 -35 328 0 328 0 0 -95 0 -95 -325 0 -325 0 0
-215 c0 -118 -1 -218 -2 -222 -2 -5 47 -10 107 -13 l110 -5 3 -82 4 -83 -181
0 c-168 0 -181 1 -191 19 -6 13 -10 169 -10 440 l0 421 81 0 81 0 -4 -35z
m1152 16 c5 -11 10 -86 10 -173 l0 -154 -67 -66 c-55 -54 -86 -75 -158 -107
l-90 -40 -3 -54 c-3 -52 -5 -55 -77 -127 l-75 -74 0 407 0 407 225 0 c212 0
225 -1 235 -19z m-512 -313 c9 -9 12 -80 12 -258 0 -206 -3 -249 -16 -268 -15
-21 -21 -22 -177 -22 -89 0 -169 5 -177 10 -13 8 -15 50 -18 259 -2 166 1 257
8 271 10 19 20 20 183 20 121 0 177 -4 185 -12z"/>
<path d="M740 1832 c0 -4 18 -48 40 -97 33 -76 40 -101 40 -157 l0 -68 30 0
30 0 0 68 c0 62 34 179 70 245 9 16 2 17 -100 17 -60 0 -110 -4 -110 -8z"/>
<path d="M390 1355 l0 -125 40 0 40 0 0 125 0 125 -40 0 -40 0 0 -125z"/>
<path d="M1665 822 c-3 -3 -5 -45 -5 -94 l0 -88 35 0 35 0 0 89 0 89 -30 4
c-17 3 -32 2 -35 0z"/>
<path d="M1250 414 l0 -155 28 3 27 3 3 153 3 152 -31 0 -30 0 0 -156z"/>
</g>
</svg>
